<svg width="1600" height="1000" viewBox="0 0 1600 1000" fill="none" xmlns="http://www.w3.org/2000/svg">
  <defs>
    <linearGradient id="bg" x1="154" y1="98" x2="1473" y2="936" gradientUnits="userSpaceOnUse">
      <stop stop-color="#182030" />
      <stop offset="0.5" stop-color="#1D2636" />
      <stop offset="1" stop-color="#171D2A" />
    </linearGradient>
    <radialGradient id="glowA" cx="0" cy="0" r="1" gradientUnits="userSpaceOnUse" gradientTransform="translate(436 318) rotate(31.4) scale(502 318)">
      <stop stop-color="#42A5A0" stop-opacity="0.34" />
      <stop offset="1" stop-color="#42A5A0" stop-opacity="0" />
    </radialGradient>
    <radialGradient id="glowB" cx="0" cy="0" r="1" gradientUnits="userSpaceOnUse" gradientTransform="translate(1178 744) rotate(214.6) scale(548 312)">
      <stop stop-color="#F59E0B" stop-opacity="0.3" />
      <stop offset="1" stop-color="#F59E0B" stop-opacity="0" />
    </radialGradient>
    <linearGradient id="card" x1="996" y1="226" x2="1248" y2="838" gradientUnits="userSpaceOnUse">
      <stop stop-color="#232D3E" />
      <stop offset="1" stop-color="#1A2231" />
    </linearGradient>
    <linearGradient id="bar" x1="957" y1="0" x2="1226" y2="0" gradientUnits="userSpaceOnUse">
      <stop stop-color="#34D399" />
      <stop offset="0.5" stop-color="#F59E0B" />
      <stop offset="1" stop-color="#FB7185" />
    </linearGradient>
  </defs>

  <rect width="1600" height="1000" fill="url(#bg)" />
  <rect width="1600" height="1000" fill="url(#glowA)" />
  <rect width="1600" height="1000" fill="url(#glowB)" />

  <g opacity="0.9">
    <rect x="126" y="112" width="1348" height="94" rx="26" fill="#111827" fill-opacity="0.55" stroke="#334155" />
    <circle cx="196" cy="159" r="22" fill="#1F2937" stroke="#4B5563" />
    <path d="M188 167C193 170 199 170 204 167M188 151C190 148 194 147 196 151M196 151C198 147 202 148 204 151" stroke="#F59E0B" stroke-width="4" stroke-linecap="round" />
    <text x="236" y="169" fill="#F3F4F6" font-family="Avenir Next, Segoe UI, sans-serif" font-size="35" font-weight="700">MoodDiary</text>
    <text x="1396" y="169" fill="#9CA3AF" font-family="Avenir Next, Segoe UI, sans-serif" font-size="25" font-weight="600" text-anchor="end">My Mood / Overview / Settings</text>
  </g>

  <g>
    <text x="132" y="366" fill="#F9FAFB" font-family="Avenir Next, Segoe UI, sans-serif" font-size="116" font-weight="700">Track Daily Mood</text>
    <text x="132" y="490" fill="#9CA3AF" font-family="Avenir Next, Segoe UI, sans-serif" font-size="52" font-weight="500">Five-level emotion check-in with optional notes</text>
    <text x="132" y="568" fill="#9CA3AF" font-family="Avenir Next, Segoe UI, sans-serif" font-size="52" font-weight="500">Voice-to-text input and same-day draft auto-save</text>

    <g transform="translate(132 648)">
      <rect width="268" height="86" rx="42" fill="#111827" fill-opacity="0.65" stroke="#374151" />
      <text x="134" y="55" fill="#F9FAFB" font-family="Avenir Next, Segoe UI, sans-serif" font-size="34" font-weight="600" text-anchor="middle">My Mood</text>
    </g>
    <g transform="translate(426 648)">
      <rect width="268" height="86" rx="42" fill="#111827" fill-opacity="0.45" stroke="#374151" />
      <text x="134" y="55" fill="#D1D5DB" font-family="Avenir Next, Segoe UI, sans-serif" font-size="34" font-weight="600" text-anchor="middle">Overview</text>
    </g>
    <g transform="translate(720 648)">
      <rect width="268" height="86" rx="42" fill="#111827" fill-opacity="0.45" stroke="#374151" />
      <text x="134" y="55" fill="#D1D5DB" font-family="Avenir Next, Segoe UI, sans-serif" font-size="34" font-weight="600" text-anchor="middle">Settings</text>
    </g>
  </g>

  <g>
    <rect x="924" y="228" width="380" height="612" rx="48" fill="url(#card)" stroke="#334155" />
    <text x="962" y="308" fill="#F3F4F6" font-family="Avenir Next, Segoe UI, sans-serif" font-size="58" font-weight="700">5 moods</text>
    <text x="962" y="352" fill="#9CA3AF" font-family="Avenir Next, Segoe UI, sans-serif" font-size="30" font-weight="500">captured in one tap</text>

    <g transform="translate(958 410)">
      <circle cx="0" cy="0" r="24" fill="#34D399" />
      <circle cx="68" cy="0" r="24" fill="#84CC16" />
      <circle cx="136" cy="0" r="24" fill="#FACC15" />
      <circle cx="204" cy="0" r="24" fill="#FB923C" />
      <circle cx="272" cy="0" r="24" fill="#F87171" />
    </g>

    <rect x="957" y="492" width="268" height="16" rx="8" fill="url(#bar)" />
    <text x="1238" y="506" fill="#F9FAFB" font-family="Avenir Next, Segoe UI, sans-serif" font-size="24" font-weight="700" text-anchor="end">89%</text>
    <text x="1248" y="506" fill="#9CA3AF" font-family="Avenir Next, Segoe UI, sans-serif" font-size="22" font-weight="500"> consistency</text>

    <rect x="957" y="572" width="118" height="110" rx="24" fill="#111827" fill-opacity="0.55" stroke="#374151" />
    <rect x="1082" y="572" width="143" height="110" rx="24" fill="#111827" fill-opacity="0.55" stroke="#374151" />
    <text x="1016" y="632" fill="#F3F4F6" font-family="Avenir Next, Segoe UI, sans-serif" font-size="44" font-weight="700" text-anchor="middle">3</text>
    <text x="1016" y="662" fill="#9CA3AF" font-family="Avenir Next, Segoe UI, sans-serif" font-size="20" font-weight="500" text-anchor="middle">tabs</text>
    <text x="1154" y="632" fill="#F3F4F6" font-family="Avenir Next, Segoe UI, sans-serif" font-size="44" font-weight="700" text-anchor="middle">Local</text>
    <text x="1154" y="662" fill="#9CA3AF" font-family="Avenir Next, Segoe UI, sans-serif" font-size="20" font-weight="500" text-anchor="middle">SwiftData first</text>

    <rect x="957" y="708" width="268" height="86" rx="24" fill="#111827" fill-opacity="0.48" stroke="#374151" />
    <text x="985" y="762" fill="#D1D5DB" font-family="Avenir Next, Segoe UI, sans-serif" font-size="26" font-weight="600">Manual iCloud Sync</text>
  </g>
</svg>
